<?xml version="1.0" encoding="UTF-8"?>
<svg width="25px" height="30px" viewBox="0 0 25 30" version="1.1" xmlns="http://www.w3.org/2000/svg" xmlns:xlink="http://www.w3.org/1999/xlink">
    <!-- Generator: Sketch 52.1 (67048) - http://www.bohemiancoding.com/sketch -->
    <title>bern</title>
    <desc>Created with Sketch.</desc>
    <defs>
        <polygon id="path-1" points="0.0692307692 0.0865384615 24.2942308 0.0865384615 24.2942308 30 0.0692307692 30"></polygon>
        <polygon id="path-3" points="0.0692307692 0.0865384615 24.2942308 0.0865384615 24.2942308 30 0.0692307692 30"></polygon>
    </defs>
    <g id="Page-1" stroke="none" stroke-width="1" fill="none" fill-rule="evenodd">
        <g id="About" transform="translate(-37.000000, -1491.000000)">
            <g id="Filter_VR" transform="translate(0.000000, 1471.000000)">
                <g id="Filter_Bern">
                    <g id="bern" transform="translate(37.000000, 20.000000)">
                        <path d="M8.79461538,11.3653846 C8.68730769,10.9776923 8.47153846,10.5923077 8.14961538,10.3326923 C7.24846154,10.5496154 6.32423077,10.7630769 5.42307692,10.9996154 C5.29153846,11.0423077 5.18653846,11.1057692 5.05615385,11.1484615 C5.4,10.4607692 5.35730769,9.43038462 4.86346154,8.82923077 L2.88692308,10.5046154 C3.40269231,11.2142308 3.89653846,11.9446154 4.41115385,12.6519231 C4.56230769,12.825 4.77692308,12.8884615 4.96961538,12.9738462 L8.02153846,13.47 L8.83730769,13.5980769 L8.83730769,11.8153846 L8.79461538,11.3653846" id="Fill-5" fill="#FFFFFF"></path>
                        <path d="M4.08,8.10807692 C3.97846154,8.06076923 3.74769231,7.94769231 3.74769231,7.94769231 C3.93692308,8.24307692 4.12730769,8.51769231 4.31653846,8.77038462 L4.605,8.52692308 C4.47576923,8.33307692 4.16076923,8.14846154 4.08,8.10807692" id="Fill-6" fill="#FFFFFF"></path>
                        <path d="M3.31730769,8.33307692 C3.48576923,8.60769231 3.69576923,8.86269231 3.88615385,9.135 L4.21038462,8.86038462 C3.99461538,8.55 3.61384615,8.505 3.31730769,8.33307692" id="Fill-7" fill="#FFFFFF"></path>
                        <path d="M3.78923077,9.21461538 C3.57461538,8.87192308 3.21,8.82923077 2.90884615,8.67807692 C3.07730769,8.95269231 3.26884615,9.22615385 3.47769231,9.48 L3.78692308,9.22153846 C3.78692308,9.21923077 3.78923077,9.21692308 3.78923077,9.21461538" id="Fill-8" fill="#FFFFFF"></path>
                        <path d="M2.47961538,9.02076923 C2.64807692,9.29538462 2.85807692,9.57 3.04730769,9.84346154 L3.37153846,9.57 C3.135,9.255 2.77730769,9.16961538 2.47961538,9.02076923" id="Fill-9" fill="#FFFFFF"></path>
                        <path d="M2.09192308,9.38538462 L2.64,10.1884615 L2.96538462,9.91269231 C2.74961538,9.61961538 2.41038462,9.49384615 2.09192308,9.38538462" id="Fill-10" fill="#FFFFFF"></path>
                        <path d="M11.5523077,18.0046154 L12.5307692,18.1488462 L12.5469231,17.7542308 C12.1765385,17.7092308 11.8638462,17.9203846 11.5523077,18.0046154" id="Fill-11" fill="#FFFFFF"></path>
                        <path d="M12.3680769,18.2815385 C12.0461538,18.2815385 11.8315385,18.4973077 11.5523077,18.5826923 C11.8430769,18.6242308 12.1742308,18.6842308 12.5053846,18.7096154 L12.5238462,18.2815385 L12.3680769,18.2815385" id="Fill-12" fill="#FFFFFF"></path>
                        <path d="M11.8742308,18.9484615 L11.5096154,19.1192308 L12.4834615,19.2438462 L12.5019231,18.8376923 C12.2780769,18.8215385 12.0565385,18.8469231 11.8742308,18.9484615" id="Fill-13" fill="#FFFFFF"></path>
                        <path d="M11.4669231,19.6557692 L12.4626923,19.7838462 L12.4788462,19.3765385 C12.1015385,19.32 11.805,19.53 11.4669231,19.6557692" id="Fill-14" fill="#FFFFFF"></path>
                        <path d="M11.4669231,20.1715385 C11.7773077,20.235 12.1084615,20.2753846 12.4407692,20.3180769 L12.4557692,19.9130769 C12.0796154,19.8565385 11.7830769,20.0457692 11.4669231,20.1715385" id="Fill-15" fill="#FFFFFF"></path>
                        <path d="M6.20423077,14.6076923 C6.53192308,14.6480769 6.86076923,14.6884615 7.18846154,14.7323077 L7.20230769,14.3469231 C6.82961538,14.2996154 6.51807692,14.5038462 6.20423077,14.6076923" id="Fill-16" fill="#FFFFFF"></path>
                        <path d="M6.18230769,15.1673077 L7.16884615,15.2930769 L7.18269231,14.8823077 C6.81,14.835 6.49615385,15.0403846 6.18230769,15.1673077" id="Fill-17" fill="#FFFFFF"></path>
                        <path d="M6.97730769,15.4234615 C6.67730769,15.4465385 6.44192308,15.5953846 6.16153846,15.7026923 C6.49730769,15.7661538 6.83307692,15.8088462 7.14923077,15.8319231 L7.16307692,15.4234615 L6.97730769,15.4234615" id="Fill-18" fill="#FFFFFF"></path>
                        <path d="M6.95653846,15.96 C6.63461538,15.96 6.41884615,16.1769231 6.13961538,16.2415385 L7.02,16.3696154 L7.12846154,16.3880769 L7.14461538,15.96 C7.07192308,15.96 7.01423077,15.96 6.95653846,15.96" id="Fill-19" fill="#FFFFFF"></path>
                        <path d="M6.13961538,16.7780769 L7.11115385,16.9038462 L7.12384615,16.5161538 C6.75,16.4423077 6.435,16.6292308 6.13961538,16.7780769" id="Fill-20" fill="#FFFFFF"></path>
                        <path d="M16.1584615,23.2396154 L16.7780769,22.455 L16.4492308,22.2403846 C16.2046154,22.5 16.2438462,22.9015385 16.1584615,23.2396154" id="Fill-21" fill="#FFFFFF"></path>
                        <path d="M16.6523077,23.5384615 C16.8438462,23.2869231 17.0746154,23.0111538 17.2453846,22.7573077 L16.8923077,22.5288462 C16.6592308,22.7884615 16.7353846,23.205 16.6523077,23.5384615" id="Fill-22" fill="#FFFFFF"></path>
                        <path d="M17.1034615,23.8188462 C17.2926923,23.5857692 17.5257692,23.3134615 17.715,23.0607692 L17.3515385,22.8242308 C17.1276923,23.1011538 17.1680769,23.4807692 17.1034615,23.8188462" id="Fill-23" fill="#FFFFFF"></path>
                        <path d="M17.5338462,24.1407692 C17.7426923,23.8696154 17.9711538,23.6180769 18.1615385,23.3492308 L17.8061538,23.1196154 C17.5788462,23.3965385 17.6180769,23.7796154 17.5338462,24.1407692" id="Fill-24" fill="#FFFFFF"></path>
                        <path d="M18.0069231,24.3992308 L18.615,23.6423077 L18.2757692,23.4219231 C18.0473077,23.6803846 18.0069231,24.06 18.0069231,24.3992308" id="Fill-25" fill="#FFFFFF"></path>
                        <g id="Group-29">
                            <g id="Fill-26-Clipped">
                                <mask id="mask-2" fill="white">
                                    <use xlink:href="#path-1"></use>
                                </mask>
                                <g id="path-1"></g>
                                <path d="M8.14269231,6.55038462 C7.94884615,6.55038462 7.79076923,6.39346154 7.79076923,6.19961538 C7.79076923,6.00576923 7.94884615,5.84769231 8.14269231,5.84769231 C8.33653846,5.84769231 8.49461538,6.00576923 8.49461538,6.19961538 C8.49461538,6.39346154 8.33653846,6.55038462 8.14269231,6.55038462 Z M20.0238462,15.4661538 L20.0896154,15.5088462 C20.3884615,15.5953846 20.6896154,15.66 20.9907692,15.6807692 L20.9492308,15.5953846 L20.7969231,14.3919231 C20.7542308,13.7042308 20.1115385,13.2530769 19.5946154,12.8884615 L13.3869231,8.67576923 C13.2380769,8.59038462 13.1076923,8.48423077 12.9369231,8.46115385 C13.0453846,8.37576923 13.1076923,8.24769231 13.1076923,8.11961538 C13.1076923,7.92576923 12.9807692,7.75153846 12.81,7.66615385 L11.0053846,6.69923077 C10.8553846,6.61384615 10.6823077,6.59307692 10.5115385,6.57115385 L10.6396154,6.48576923 C10.7480769,6.39923077 10.7930769,6.29423077 10.8207692,6.15807692 C10.8634615,5.92153846 10.8334615,5.71269231 10.6834615,5.51884615 C10.5334615,5.34692308 10.3788462,5.22576923 10.0292308,5.26615385 C9.82384615,5.295 9.64384615,5.41730769 9.54461538,5.71269231 C9.50192308,5.84076923 9.52269231,6.01153846 9.54461538,6.12 C9.48,6.03461538 9.48,5.92615385 9.39346154,5.86384615 C8.96538462,5.62615385 8.55807692,5.38961538 8.14846154,5.19576923 C8.04115385,5.13115385 7.91307692,5.11038462 7.82653846,5.17384615 C7.71923077,5.23961538 7.69615385,5.36769231 7.65346154,5.47615385 L7.59115385,5.38730769 C6.73038462,4.89461538 5.85115385,4.42269231 4.99153846,3.95076923 C5.055,4.03615385 5.14153846,4.12153846 5.16346154,4.25076923 L5.18423077,5.49576923 C5.7,5.88346154 6.25730769,6.20538462 6.77307692,6.61384615 C6.88038462,6.67730769 6.945,6.78461538 6.98884615,6.91384615 C7.05230769,7.10769231 7.00961538,7.34423077 6.90346154,7.49538462 C6.77307692,7.64538462 6.62307692,7.77461538 6.40730769,7.73192308 C5.95730769,7.55769231 5.57076923,7.23576923 5.18423077,6.91384615 C5.18423077,7.19307692 5.18423077,7.49538462 5.205,7.79423077 L8.59961538,10.1584615 C9.00692308,10.545 9.22269231,11.0180769 9.28615385,11.5546154 L9.285,14.6711538 L9.285,15.2503846 L9.39346154,15.7869231 C9.135,15.3588462 8.72653846,14.9053846 8.27538462,14.6688462 C8.06192308,14.5834615 7.84615385,14.4542308 7.60961538,14.4346154 C7.60153846,14.73 7.59115385,15.0288462 7.57730769,15.3288462 L7.52538462,16.7538462 C7.52538462,16.8392308 7.52307692,16.9246154 7.52307692,17.01 L9.60807692,17.3319231 C9.84461538,17.355 10.1446154,17.4207692 10.2946154,17.2269231 L12.6796154,14.0261538 L12.7015385,14.0261538 C12.6796154,14.1115385 12.6138462,14.1773077 12.6138462,14.2626923 L13.0857692,14.3261538 L13.2357692,14.2407692 C13.0857692,14.4542308 12.9357692,14.6711538 12.8307692,14.9076923 C12.6796154,15.315 12.7223077,15.8319231 12.9576923,16.1965385 L14.8246154,19.2253846 L14.8246154,19.2680769 L14.5465385,18.8803846 C14.1369231,18.3219231 13.56,18 12.9576923,17.8084615 L12.8942308,19.23 L12.8526923,20.2534615 L12.8434615,20.4069231 L15.2123077,20.7288462 L15.4038462,20.7080769 C15.5342308,20.6653846 15.6207692,20.535 15.6842308,20.4069231 L16.5011538,18.4303846 C16.3073077,18.1303846 16.1376923,17.8280769 15.9853846,17.5280769 C15.7061538,16.9465385 15.5792308,16.1965385 15.7719231,15.5296154 L15.7915385,15.4234615 L14.4403846,14.6284615 L14.2684615,14.4992308 L16.0511538,14.8223077 C16.2,14.865 16.3938462,14.8419231 16.5023077,14.7565385 C16.3073077,15.1211538 16.185,15.4592308 16.1203846,15.9103846 C16.0361538,16.7492308 16.4446154,17.3930769 16.7861538,18.0576923 L18.2907692,20.5073077 C18.5053846,20.85 18.8434615,20.9873077 19.2057692,21.1165385 L19.185,21.1165385 C18.6911538,20.9653846 18.0461538,20.9446154 17.5534615,21.1361538 C17.19,21.2873077 16.8692308,21.585 16.6557692,21.9253846 L18.8226923,23.325 L19.8934615,21.975 C20.1726923,21.5665385 20.6042308,21.2446154 20.6042308,20.7080769 L20.0896154,15.7234615 C20.0896154,15.6173077 20.0238462,15.5526923 20.0238462,15.4661538 Z" id="Fill-26" fill="#FFFFFF" fill-rule="nonzero" mask="url(#mask-2)"></path>
                            </g>
                            <g id="Fill-28-Clipped">
                                <mask id="mask-4" fill="white">
                                    <use xlink:href="#path-3"></use>
                                </mask>
                                <g id="path-1"></g>
                                <path d="M19.4930769,26.3538462 L0.897692308,13.7988462 C0.897692308,8.99423077 0.897692308,1.55769231 0.897692308,0.984230769 C1.13884615,0.984230769 2.99538462,0.984230769 5.54653846,0.984230769 L23.3953846,12.8757692 C23.3953846,15.6703846 23.3953846,17.8534615 23.3953846,17.8534615 C23.3953846,21.2480769 21.8780769,24.2896154 19.4930769,26.3538462 Z M0.897692308,17.8534615 C0.897692308,17.8534615 0.897692308,16.6361538 0.897692308,14.8603846 L18.7684615,26.9273077 C16.9084615,28.2888462 14.6238462,29.1034615 12.1476923,29.1034615 C5.94461538,29.1034615 0.897692308,24.0565385 0.897692308,17.8534615 Z M23.3953846,11.8176923 L7.13307692,0.984230769 C13.6026923,0.984230769 22.8369231,0.984230769 23.3953846,0.984230769 C23.3953846,1.48269231 23.3953846,7.18038462 23.3953846,11.8176923 Z M0,0.0865384615 L0,17.8534615 C0,24.5503846 5.44961538,30 12.1476923,30 C18.8457692,30 24.2942308,24.5503846 24.2942308,17.8534615 L24.2942308,0.0865384615 L0,0.0865384615 Z" id="Fill-28" fill="#FFFFFF" fill-rule="nonzero" mask="url(#mask-4)"></path>
                            </g>
                        </g>
                    </g>
                </g>
            </g>
        </g>
    </g>
</svg>