<?xml version="1.0" encoding="UTF-8"?>
<svg width="30px" height="25px" viewBox="0 0 30 25" version="1.1" xmlns="http://www.w3.org/2000/svg" xmlns:xlink="http://www.w3.org/1999/xlink">
    <!-- Generator: Sketch 52.1 (67048) - http://www.bohemiancoding.com/sketch -->
    <title>Shape</title>
    <desc>Created with Sketch.</desc>
    <g id="Page-1" stroke="none" stroke-width="1" fill="none" fill-rule="evenodd">
        <g id="About" transform="translate(-35.000000, -1323.000000)" fill="#FFFFFF" fill-rule="nonzero">
            <g id="Filter_Concept" transform="translate(0.000000, 1305.000000)">
                <g id="Filter_Work">
                    <g id="briefcase" transform="translate(35.000000, 18.000000)">
                        <path d="M27.4143107,3.77727804 L21.1838201,3.77727804 L21.1838201,2.53113318 C21.1838201,1.15665888 20.0661215,0.0389018692 18.6915888,0.0389018692 L11.2149533,0.0389018692 C9.84047897,0.0389018692 8.72272196,1.15660047 8.72272196,2.53113318 L8.72272196,3.77721963 L2.49223131,3.77721963 C1.1176986,3.77727804 0,4.89497664 0,6.26945093 L0,22.4688084 C0,23.8432827 1.1176986,24.9610397 2.49223131,24.9610397 L27.4143692,24.9610397 C28.7888435,24.9610397 29.9066005,23.8433411 29.9066005,22.4688084 L29.9066005,6.26945093 C29.9065421,4.89497664 28.7888435,3.77727804 27.4143107,3.77727804 Z M9.96886682,2.53113318 C9.96886682,1.84421729 10.5280374,1.28504673 11.2149533,1.28504673 L18.6915888,1.28504673 C19.3785047,1.28504673 19.9376752,1.84421729 19.9376752,2.53113318 L19.9376752,3.77721963 L9.96886682,3.77721963 L9.96886682,2.53113318 Z M28.6604556,22.4688668 C28.6604556,23.1557827 28.101285,23.7149533 27.4143692,23.7149533 L2.49223131,23.7149533 C1.80531542,23.7149533 1.24614486,23.1557827 1.24614486,22.4688668 L1.24614486,13.3995327 C1.61419393,13.6141355 2.03627336,13.7461449 2.49223131,13.7461449 L12.4610981,13.7461449 L12.4610981,15.6153037 C12.4610981,15.9596963 12.739778,16.2383762 13.0841706,16.2383762 L16.8224883,16.2383762 C17.1668808,16.2383762 17.4455607,15.9596963 17.4455607,15.6153037 L17.4455607,13.7461449 L27.4144276,13.7461449 C27.8703855,13.7461449 28.2925234,13.6141939 28.660514,13.3995327 L28.660514,22.4688668 L28.6604556,22.4688668 Z M13.7071846,14.9922313 L13.7071846,12.5 L16.1994159,12.5 L16.1994159,14.9922313 L13.7071846,14.9922313 Z M28.6604556,11.2539136 C28.6604556,11.9408294 28.101285,12.5 27.4143692,12.5 L17.4455023,12.5 L17.4455023,11.8769276 C17.4455023,11.532535 17.1668224,11.2538551 16.8224299,11.2538551 L13.0841121,11.2538551 C12.7397196,11.2538551 12.4610397,11.532535 12.4610397,11.8769276 L12.4610397,12.5 L2.49223131,12.5 C1.80531542,12.5 1.24614486,11.9408294 1.24614486,11.2539136 L1.24614486,6.26950935 C1.24614486,5.58259346 1.80531542,5.0234229 2.49223131,5.0234229 L27.4143692,5.0234229 C28.101285,5.0234229 28.6604556,5.58259346 28.6604556,6.26950935 L28.6604556,11.2539136 Z" id="Shape"></path>
                    </g>
                </g>
            </g>
        </g>
    </g>
</svg>