<?xml version="1.0" encoding="UTF-8"?>
<svg width="35px" height="30px" viewBox="0 0 35 30" version="1.1" xmlns="http://www.w3.org/2000/svg" xmlns:xlink="http://www.w3.org/1999/xlink">
    <!-- Generator: Sketch 52.1 (67048) - http://www.bohemiancoding.com/sketch -->
    <title>graduation-hat</title>
    <desc>Created with Sketch.</desc>
    <g id="Page-1" stroke="none" stroke-width="1" fill="none" fill-rule="evenodd">
        <g id="About" transform="translate(-32.000000, -1408.000000)" fill="#FFFFFF" fill-rule="nonzero">
            <g id="Filter_UI" transform="translate(0.000000, 1388.000000)">
                <g id="Filter_Education">
                    <g id="graduation-hat" transform="translate(32.000000, 20.000000)">
                        <path d="M35.0020548,21.4211644 C35.0020548,20.085137 34.145274,18.9460959 32.9524658,18.5230137 L32.9524658,7.91979452 L35.0686301,7.0739726 L17.5115753,0.0565068493 L0,7.0739726 L8.28890411,10.3956164 L8.28890411,15.2723973 C8.28890411,16.7757534 9.34287671,18.1306849 11.2566438,19.0876027 C12.9446575,19.9316438 15.1661644,20.3964384 17.5120548,20.3964384 C19.8579452,20.3964384 22.0795205,19.9316438 23.7674658,19.0876027 C25.6812329,18.1306849 26.7352055,16.7758219 26.7352055,15.2723973 L26.7352055,10.4047945 L30.9027397,8.7390411 L30.9027397,18.5230822 C29.7099315,18.9460959 28.8531507,20.0852055 28.8531507,21.4212329 C28.8531507,22.6434247 29.5700685,23.7011644 30.6054795,24.1963014 L28.9057534,29.2954795 L30.8502055,29.9436301 L31.9276027,26.7115068 L33.005,29.9436301 L34.9494521,29.2954795 L33.249726,24.1963014 C34.285,23.7010274 35.0020548,22.6433562 35.0020548,21.4211644 Z M24.6856849,15.2723288 C24.6856849,16.7235616 21.6178767,18.3467123 17.5121233,18.3467123 C13.4063699,18.3467123 10.3385616,16.7235616 10.3385616,15.2723288 L10.3385616,11.2169178 L17.5116438,14.0914384 L24.6857534,11.2239041 L24.6857534,15.2723288 L24.6856849,15.2723288 Z M17.5126027,11.8838356 L5.50993151,7.0739726 L17.5126027,2.26410959 L29.5462329,7.0739726 L17.5126027,11.8838356 Z M31.9276027,22.4459589 C31.3625342,22.4459589 30.9028082,21.9862329 30.9028082,21.4211644 C30.9028082,20.8560959 31.3625342,20.3963699 31.9276027,20.3963699 C32.4926712,20.3963699 32.9523973,20.8560959 32.9523973,21.4211644 C32.9523973,21.9862329 32.4926712,22.4459589 31.9276027,22.4459589 Z" id="Shape"></path>
                    </g>
                </g>
            </g>
        </g>
    </g>
</svg>