<?xml version="1.0" encoding="UTF-8"?>
<svg width="70px" height="101px" viewBox="0 0 70 101" version="1.1" xmlns="http://www.w3.org/2000/svg" xmlns:xlink="http://www.w3.org/1999/xlink">
    <!-- Generator: Sketch 51.3 (57544) - http://www.bohemiancoding.com/sketch -->
    <title>light-bulb</title>
    <desc>Created with Sketch.</desc>
    <defs></defs>
    <g id="Page-1" stroke="none" stroke-width="1" fill="none" fill-rule="evenodd">
        <g id="light-bulb" transform="translate(1.871265, 1.000000)" fill="#C85457">
            <path d="M21.7126039,91.0877542 L45.2600702,91.0877542 L45.2600702,74.0498605 L21.7126039,74.0498605 L21.7126039,91.0877542 Z M46.9419617,94.4954128 L20.0307124,94.4954128 C19.0215381,94.4954128 18.3486239,93.8137613 18.3486239,92.7914837 L18.3486239,72.3459313 C18.3486239,71.3236537 19.0215381,70.6422018 20.0307124,70.6422018 L46.9419617,70.6422018 C47.951136,70.6422018 48.6238532,71.3236537 48.6238532,72.3459313 L48.6238532,92.7914837 C48.6238532,93.8137613 47.951136,94.4954128 46.9419617,94.4954128 Z" id="Fill-1"></path>
            <path d="M27.1385047,93.272237 L28.6699536,95.2905856 C29.3505312,96.1314328 30.3714971,96.6360199 31.3924631,96.6360199 L36.4972929,96.6360199 C37.5182588,96.6360199 38.5392248,96.1314328 39.2200017,95.2905856 L40.7514506,93.272237 L27.1385047,93.272237 Z M36.4972929,100 L31.3924631,100 C29.1804366,100 27.3085992,98.9908257 25.9474442,97.3089342 L22.3740634,92.5993227 C22.0336749,92.0947355 21.8635804,91.4220183 22.2037695,90.9174312 C22.5441579,90.412844 23.0546409,89.9082569 23.7352184,89.9082569 L44.1545375,89.9082569 C44.8353144,89.9082569 45.3457974,90.244714 45.6859865,90.9174312 C46.0263749,91.4220183 45.8562804,92.0947355 45.5158919,92.5993227 L41.9425111,97.3089342 C40.7514506,98.9908257 38.7095187,100 36.4972929,100 Z" id="Fill-2"></path>
            <path d="M31.3965979,80.733945 L19.9797401,80.733945 C19.0011468,80.733945 18.3486239,80.000086 18.3486239,78.8991901 C18.3486239,77.7982941 19.0011468,77.0642202 19.9797401,77.0642202 L31.3965979,77.0642202 C32.3751911,77.0642202 33.0275229,77.7982941 33.0275229,78.8991901 C33.0275229,80.000086 32.3751911,80.733945 31.3965979,80.733945" id="Fill-3"></path>
            <path d="M46.0754969,87.1559633 L34.6586391,87.1559633 C33.6800459,87.1559633 33.0275229,86.4220614 33.0275229,85.3211009 C33.0275229,84.2201405 33.6800459,83.4862385 34.6586391,83.4862385 L46.0754969,83.4862385 C47.0540902,83.4862385 47.706422,84.2201405 47.706422,85.3211009 C47.706422,86.4220614 47.0540902,87.1559633 46.0754969,87.1559633" id="Fill-4"></path>
            <path d="M46.9419617,80.733945 L40.2141987,80.733945 C39.2050244,80.733945 38.5321101,80.000086 38.5321101,78.8991901 C38.5321101,77.7982941 39.2050244,77.0642202 40.2141987,77.0642202 L46.9419617,77.0642202 C47.951136,77.0642202 48.6238532,77.7982941 48.6238532,78.8991901 C48.6238532,80.000086 47.951136,80.733945 46.9419617,80.733945" id="Fill-5"></path>
            <g id="Group-9">
                <path d="M26.7762621,87.0629821 L20.0921348,87.0629821 C19.0895059,87.0629821 18.4209561,86.3933317 18.4209561,85.3887581 C18.4209561,84.3841845 19.0895059,83.7145341 20.0921348,83.7145341 L26.7762621,83.7145341 C27.778891,83.7145341 28.447245,84.3841845 28.447245,85.3887581 C28.447245,86.3933317 27.778891,87.0629821 26.7762621,87.0629821" id="Fill-6"></path>
                <path d="M21.4288427,70.3201537 L45.4919363,70.3201537 C46.8288401,65.4646491 49.8367268,60.7767043 54.0142819,56.5910463 C61.0326842,49.8937579 64.3748458,40.5178683 63.3722169,30.8068591 C61.8682735,16.5754648 50.3380412,5.19023166 36.1341971,3.51600769 C35.2986078,3.51600769 34.4630184,3.34864415 33.4603895,3.34864415 C32.4577606,3.34864415 31.6223671,3.51600769 30.7867777,3.51600769 C16.5829336,5.19023166 5.21974087,16.5754648 3.54875798,30.8068591 C2.54612908,40.5178683 5.88809485,49.8937579 12.9064971,56.5910463 C17.0842481,60.7767043 20.0921348,65.4646491 21.4288427,70.3201537 Z M46.8288401,73.6687979 L20.0921348,73.6687979 C19.2565454,73.6687979 18.5881914,73.1665111 18.4209561,72.329301 C17.4183272,67.8087197 14.7447154,63.1207748 10.5671603,59.1024803 C2.88020817,51.7355417 -0.963072053,41.1875186 0.206596384,30.472132 C1.87757927,14.7336811 14.5776758,2.00914725 30.2854633,0.167363535 C31.2880922,0.167363535 32.2907211,0 33.4603895,0 C34.6302538,0 35.6328827,0.167363535 36.6355116,0.167363535 C52.343299,1.84178371 65.0431997,14.5663176 66.7143785,30.472132 C67.8840469,41.1875186 64.0405708,51.5681781 56.3538146,59.1024803 C52.1762595,63.1207748 49.3354123,67.8087197 48.499823,72.329301 C48.3327834,73.1665111 47.6644294,73.6687979 46.8288401,73.6687979 Z" id="Fill-8" stroke="#C85457" stroke-width="2"></path>
            </g>
            <path d="M23.1191886,35.4862939 C21.3028074,35.4862939 19.8165718,37.0055552 19.8165718,38.8624961 C19.8165718,40.7192392 21.3028074,42.2385005 23.1191886,42.2385005 L26.421999,42.2385005 L26.421999,38.8624961 C26.421999,37.0055552 24.9357634,35.4862939 23.1191886,35.4862939 Z M39.6330469,42.2385005 L42.9356637,42.2385005 C44.7522384,42.2385005 46.2384741,40.7192392 46.2384741,38.8624961 C46.2384741,37.0055552 44.7522384,35.4862939 42.9356637,35.4862939 C41.1192825,35.4862939 39.6330469,37.0055552 39.6330469,38.8624961 L39.6330469,42.2385005 Z M37.9815449,74.3119266 C36.9907212,74.3119266 36.3302365,73.6365675 36.3302365,72.6237266 L36.3302365,45.6147026 L29.7248093,45.6147026 L29.7248093,72.6237266 C29.7248093,73.6365675 29.0641312,74.3119266 28.0733074,74.3119266 C27.0824837,74.3119266 26.421999,73.6365675 26.421999,72.6237266 L26.421999,45.6147026 L23.1191886,45.6147026 C19.4862327,45.6147026 16.5137615,42.57618 16.5137615,38.8624961 C16.5137615,35.1486144 19.4862327,32.1100917 23.1191886,32.1100917 C26.7523381,32.1100917 29.7248093,35.1486144 29.7248093,38.8624961 L29.7248093,42.2385005 L36.3302365,42.2385005 L36.3302365,38.8624961 C36.3302365,35.1486144 39.3027078,32.1100917 42.9356637,32.1100917 C46.5688131,32.1100917 49.5412844,35.1486144 49.5412844,38.8624961 C49.5412844,42.57618 46.5688131,45.6147026 42.9356637,45.6147026 L39.6330469,45.6147026 L39.6330469,72.6237266 C39.6330469,73.6365675 38.9723687,74.3119266 37.9815449,74.3119266 Z" id="Fill-10"></path>
        </g>
    </g>
</svg>