<?xml version="1.0" encoding="UTF-8"?>
<svg width="103px" height="101px" viewBox="0 0 103 101" version="1.1" xmlns="http://www.w3.org/2000/svg" xmlns:xlink="http://www.w3.org/1999/xlink">
    <!-- Generator: Sketch 51.3 (57544) - http://www.bohemiancoding.com/sketch -->
    <title>eco-power-cells copy</title>
    <desc>Created with Sketch.</desc>
    <defs></defs>
    <g id="Page-1" stroke="none" stroke-width="1" fill="none" fill-rule="evenodd">
        <g id="eco-power-cells-copy" transform="translate(1.000000, 1.000000)" fill="#FFFFFF">
            <path d="M87.3147154,49.3716434 L100.553169,26.4607948 L85.6337272,0.639097744 L55.8270677,0.639097744 L42.3576799,23.9849624 L14.8925886,23.9849624 L0,49.8120301 L14.8925886,75.6176155 L42.8410311,75.6176155 L56.3265306,98.9849624 L86.1385607,98.9849624 L101.031149,73.1632653 L87.3147154,49.3716434 Z M58.67884,5.56928034 L82.8034372,5.56928034 L94.8657358,26.4393126 L82.8034372,47.3361976 L58.67884,47.3361976 L46.6165414,26.4393126 L58.67884,5.56928034 Z M41.8743287,70.6874329 L17.7497315,70.6874329 L5.68743287,49.8120301 L17.7497315,28.915145 L41.8743287,28.915145 L53.9366273,49.8120301 L41.8743287,70.6874329 Z M83.2867884,94.0547798 L59.1836735,94.0547798 L47.1160043,73.1632653 L59.1836735,52.2663802 L83.2867884,52.2663802 L95.349087,73.1632653 L83.2867884,94.0547798 Z" id="Fill-1" stroke="#FFFFFF" stroke-width="1.5"></path>
            <polygon id="Fill-2" points="19.8657358 32.4650913 9.94629431 49.7690655 19.3447905 67.6047261 22.6154672 65.8807734 14.1621912 49.8335124 23.0773362 34.2857143"></polygon>
            <polygon id="Fill-3" points="88.1740064 27.1965628 91.2781955 25.2040816 80.0537057 7.74973147 60.7948443 7.74973147 60.7948443 11.4446831 78.0397422 11.4446831"></polygon>
            <polygon id="Fill-4" points="82.3200859 55.7089151 79.0708915 57.4489796 87.6047261 73.3727175 79.0923738 87.867884 82.2771214 89.7368421 91.8474758 73.453276"></polygon>
        </g>
    </g>
</svg>