<?xml version="1.0" encoding="UTF-8"?>
<svg width="102px" height="102px" viewBox="0 0 102 102" version="1.1" xmlns="http://www.w3.org/2000/svg" xmlns:xlink="http://www.w3.org/1999/xlink">
    <!-- Generator: Sketch 51.3 (57544) - http://www.bohemiancoding.com/sketch -->
    <title>005-network copy</title>
    <desc>Created with Sketch.</desc>
    <defs></defs>
    <g id="Page-1" stroke="none" stroke-width="1" fill="none" fill-rule="evenodd">
        <g id="005-network-copy" transform="translate(1.000000, 1.000000)" fill="#FFFFFF" stroke="#FFFFFF" stroke-width="2">
            <path d="M89.0886364,0 C83.0795455,0 78.1772727,4.89090909 78.1772727,10.9113636 C78.1772727,12.7931818 78.6568182,14.5590909 79.5,16.1136364 L61.6295455,33.9840909 C59.1704545,32.0568182 56.0818182,30.9136364 52.725,30.9136364 C49.3704545,30.9136364 46.2886364,32.0568182 43.8204545,33.975 L29.875,20.0363636 C30.5227273,18.9545455 30.9136364,17.7113636 30.9136364,16.3613636 C30.9136364,12.35 27.6454545,9.09090909 23.6318182,9.09090909 C19.6295455,9.09090909 16.3613636,12.35 16.3613636,16.3613636 C16.3613636,20.375 19.6295455,23.6318182 23.6318182,23.6318182 C24.9818182,23.6318182 26.225,23.2431818 27.3090909,22.6022727 L41.2545455,36.55 C39.3386364,39.0181818 38.1840909,42.0977273 38.1840909,45.4545455 C38.1840909,48.8113636 39.3386364,51.8909091 41.2545455,54.3590909 L18.2272727,77.3886364 C16.2909091,75.6295455 13.725,74.5477273 10.9113636,74.5477273 C4.89090909,74.5477273 0,79.4386364 0,85.4590909 C0,91.4681818 4.89090909,96.3590909 10.9113636,96.3590909 C16.9204545,96.3590909 21.8227273,91.4681818 21.8227273,85.4590909 C21.8227273,83.575 21.3431818,81.8 20.5,80.2545455 L43.8204545,56.925 C45.8363636,58.4954545 48.2590909,59.5431818 50.9136364,59.8727273 L50.9136364,78.3477273 C45.7568182,79.2159091 41.8227273,83.6909091 41.8227273,89.0886364 C41.8227273,95.1090909 46.7159091,100 52.725,100 C58.7454545,100 63.6363636,95.1090909 63.6363636,89.0886364 C63.6363636,83.7 59.6954545,79.2159091 54.5454545,78.3477273 L54.5454545,59.8727273 C57.2,59.5431818 59.6227273,58.4954545 61.6386364,56.925 L75.5772727,70.8727273 C74.9386364,71.9545455 74.5477273,73.1977273 74.5477273,74.5477273 C74.5477273,78.5590909 77.8045455,81.8181818 81.8181818,81.8181818 C85.8318182,81.8181818 89.0886364,78.5590909 89.0886364,74.5477273 C89.0886364,70.5340909 85.8318182,67.2772727 81.8181818,67.2772727 C80.4681818,67.2772727 79.225,67.6659091 78.1522727,68.3068182 L64.2045455,54.3590909 C66.1227273,51.8909091 67.2772727,48.8113636 67.2772727,45.4545455 C67.2772727,42.0977273 66.1227273,39.0181818 64.2045455,36.55 L81.7727273,18.9818182 C83.7090909,20.7386364 86.275,21.8227273 89.0886364,21.8227273 C95.1090909,21.8227273 100,16.9204545 100,10.9113636 C100,4.89090909 95.1090909,0 89.0886364,0 Z M20.0022727,16.3613636 C20.0022727,14.3545455 21.6363636,12.7318182 23.6318182,12.7318182 C25.6386364,12.7318182 27.2727273,14.3545455 27.2727273,16.3613636 C27.2727273,18.3681818 25.6386364,20.0022727 23.6318182,20.0022727 C21.6363636,20.0022727 20.0022727,18.3681818 20.0022727,16.3613636 Z M10.9113636,92.7295455 C6.89772727,92.7295455 3.64090909,89.4613636 3.64090909,85.4590909 C3.64090909,81.4454545 6.89772727,78.1772727 10.9113636,78.1772727 C14.9227273,78.1772727 18.1818182,81.4454545 18.1818182,85.4590909 C18.1818182,89.4613636 14.9227273,92.7295455 10.9113636,92.7295455 Z M59.9954545,89.0886364 C59.9954545,93.1022727 56.7386364,96.3590909 52.725,96.3590909 C48.7136364,96.3590909 45.4545455,93.1022727 45.4545455,89.0886364 C45.4545455,85.0772727 48.7136364,81.8181818 52.725,81.8181818 C56.7386364,81.8181818 59.9954545,85.0772727 59.9954545,89.0886364 Z M52.725,56.3659091 C46.7159091,56.3659091 41.8136364,51.4727273 41.8136364,45.4545455 C41.8136364,39.4363636 46.7159091,34.5431818 52.725,34.5431818 C58.7454545,34.5431818 63.6363636,39.4363636 63.6363636,45.4545455 C63.6363636,51.4727273 58.7454545,56.3659091 52.725,56.3659091 Z M85.4590909,74.5477273 C85.4590909,76.5545455 83.825,78.1772727 81.8181818,78.1772727 C79.8113636,78.1772727 78.1772727,76.5545455 78.1772727,74.5477273 C78.1772727,72.5409091 79.8113636,70.9068182 81.8181818,70.9068182 C83.825,70.9068182 85.4590909,72.5409091 85.4590909,74.5477273 Z M89.0886364,18.1818182 C85.0772727,18.1818182 81.8181818,14.9227273 81.8181818,10.9113636 C81.8181818,6.89772727 85.0772727,3.64090909 89.0886364,3.64090909 C93.1022727,3.64090909 96.3590909,6.89772727 96.3590909,10.9113636 C96.3590909,14.9227273 93.1022727,18.1818182 89.0886364,18.1818182 Z" id="Fill-1"></path>
        </g>
    </g>
</svg>