<?xml version="1.0" encoding="UTF-8"?>
<svg width="82px" height="102px" viewBox="0 0 82 102" version="1.1" xmlns="http://www.w3.org/2000/svg" xmlns:xlink="http://www.w3.org/1999/xlink">
    <!-- Generator: Sketch 51.3 (57544) - http://www.bohemiancoding.com/sketch -->
    <title>002-select copy</title>
    <desc>Created with Sketch.</desc>
    <defs></defs>
    <g id="Page-1" stroke="none" stroke-width="1" fill="none" fill-rule="evenodd">
        <path d="M71.8329061,30.1661174 C70.1200238,30.1661174 68.5245726,30.6878433 67.1988955,31.5745577 C66.0575437,28.3331185 62.9618557,25.9993897 59.3332113,25.9993897 C57.620329,25.9993897 56.0239013,26.5211156 54.6992007,27.4080742 C53.5576047,24.1666349 50.4621608,21.8329061 46.8322957,21.8329061 C45.3161899,21.8329061 43.8913921,22.2420838 42.6658122,22.9544826 L42.6658122,9.33321126 C42.6658122,4.73753058 38.9282816,1 34.3326009,1 C29.7369202,1 25.9993897,4.73753058 25.9993897,9.33321126 L25.9993897,58.0456199 L14.5458323,52.3168881 C12.8207431,51.4538552 10.8866705,51 8.95845723,51 C4.56663298,51 1,54.5705392 1,58.9831153 C1,61.1127436 1.82860924,63.107851 3.33275228,64.6127265 L30.2747594,91.5537571 C36.362132,97.6457683 44.4663405,101 53.0827535,101 C68.0162743,101 80.1661174,88.8491804 80.1661174,73.9166361 L80.1661174,38.5003052 C80.1661174,33.9034038 76.4285868,30.1661174 71.8329061,30.1661174 Z M75.9993897,73.9166361 C75.9993897,86.5537815 65.7159926,96.8322957 53.0778707,96.8322957 C45.5744894,96.8322957 38.5239867,93.912144 33.224452,88.6040644 L6.27853868,61.6620573 C5.56223358,60.9496584 5.16648356,59.9958057 5.16648356,58.9582131 C5.16648356,56.8669147 6.86593815,55.1664836 8.95845723,55.1664836 C10.2458045,55.1664836 11.528513,55.4706813 12.6832926,56.0458738 L27.1534368,63.2794811 C27.799918,63.599792 28.5706662,63.5663449 29.1790616,63.1879288 C29.7913633,62.808292 30.1661174,62.1378851 30.1661174,61.4169413 L30.1661174,9.33321126 C30.1661174,7.03756818 32.0323192,5.16648356 34.3326009,5.16648356 C36.6328827,5.16648356 38.4993286,7.03756818 38.4993286,9.33321126 L38.4993286,48.9162699 C38.4993286,50.0664108 39.4329178,51 40.5830587,51 C41.7331995,51 42.6658122,50.0664108 42.6658122,48.9162699 L42.6658122,30.1670939 C42.6658122,27.8704743 44.5329906,26.0003662 46.8322957,26.0003662 C49.1325775,26.0003662 50.9990234,27.8704743 50.9990234,30.1670939 L50.9990234,48.9162699 C50.9990234,50.0664108 51.9326126,51 53.0827535,51 C54.2328944,51 55.1664836,50.0664108 55.1664836,48.9162699 L55.1664836,34.3335775 C55.1664836,32.037202 57.0329295,30.1670939 59.3332113,30.1670939 C61.6325164,30.1670939 63.4996948,32.037202 63.4996948,34.3335775 L63.4996948,48.9162699 C63.4996948,50.0664108 64.4323075,51 65.5824483,51 C66.7325892,51 67.6661784,50.0664108 67.6661784,48.9162699 L67.6661784,38.5003052 C67.6661784,36.2036855 69.5326244,34.3335775 71.8329061,34.3335775 C74.1331878,34.3335775 75.9993897,36.2036855 75.9993897,38.5003052 L75.9993897,73.9166361 Z" id="002-select-copy" stroke="#FFFFFF" stroke-width="2" fill="#FFFFFF"></path>
    </g>
</svg>