<?xml version="1.0" encoding="UTF-8"?>
<svg width="88px" height="100px" viewBox="0 0 88 100" version="1.1" xmlns="http://www.w3.org/2000/svg" xmlns:xlink="http://www.w3.org/1999/xlink">
    <!-- Generator: Sketch 51.3 (57544) - http://www.bohemiancoding.com/sketch -->
    <title>004-3d-modeling</title>
    <desc>Created with Sketch.</desc>
    <defs></defs>
    <g id="Page-1" stroke="none" stroke-width="1" fill="none" fill-rule="evenodd">
        <path d="M0.0019531302,26.5291183 C0.0013020868,26.536117 0.0006510434,42.1719822 0,73.4367139 C0.0114746399,74.4933573 0.564698769,75.4660162 1.49072663,75.9877461 L42.4835116,99.6074379 C44.0179395,100.49245 45.4266346,99.6037757 45.4066151,99.6084144 C80.6164256,79.3210069 86.4042828,75.9867695 86.4243024,75.9752949 C86.444322,75.9562518 87.8737692,75.166699 87.8908591,73.4691847 C87.8908591,73.4615349 87.8911846,57.8253442 87.8918356,26.5606125 C87.8813375,25.5374164 87.3578987,24.5818474 86.4670271,24.0486429 C86.457587,24.0429463 72.771434,16.1566948 45.4085682,0.38988849 C44.5272182,-0.11743708 43.4075863,-0.14233949 42.4835116,0.38988849 L1.46777735,24.0230081 C0.582765224,24.5313102 0.0114746399,25.4924944 0.0019531302,26.5291183 Z M41.0157342,91.9743609 L9.00661578,73.3395456 L20.6462952,66.6866959 L41.0157342,78.3290609 L41.0157342,91.9743609 Z M41.0157342,71.5807519 L23.4375624,61.5338501 L23.4375624,41.6544027 L41.0157342,51.6986189 L41.0157342,71.5807519 Z M46.8751248,91.9999957 L46.8751248,78.3290609 L67.2457845,66.6874283 L79.0751618,73.447212 L46.8751248,91.9999957 Z M46.8751248,71.5807519 L46.8751248,51.6986189 L64.4542732,41.6544027 L64.4542732,61.5338501 L46.8751248,71.5807519 Z M82.032445,68.3878723 L70.3136638,61.6913213 L70.3136638,38.3052727 L82.032445,31.6094541 L82.032445,68.3878723 Z M46.8751248,7.99733062 L79.0751618,26.5501144 L67.2457845,33.309898 L46.8751248,21.6682655 L46.8751248,7.99733062 Z M43.9454295,26.7427419 L61.3404954,36.6839305 L43.9454295,46.625119 L26.5503637,36.6839305 L43.9454295,26.7427419 Z M41.0157342,7.99733062 L41.0157342,21.6682655 L20.6462952,33.309898 L8.81691801,26.5501144 L41.0157342,7.99733062 Z M5.8593906,31.6094541 L17.5781718,38.3052727 L17.5781718,61.6920537 L5.8593906,68.3878723 L5.8593906,31.6094541 Z" id="004-3d-modeling" fill="#C85457"></path>
    </g>
</svg>